<svg xmlns="http://www.w3.org/2000/svg" style="display:none" id="icon-defs">

  

  
  <symbol id="icon-clauseguard" viewBox="0 0 24 24" fill="none">
    <path d="M12 2L4 5.5V11c0 4.418 3.358 8.55 8 9.95C16.642 19.55 20 15.418 20 11V5.5L12 2Z" fill="currentColor" opacity="0.15" stroke="currentColor" stroke-width="1.5" stroke-linejoin="round"></path>
    <path d="M8.5 12l2.5 2.5 4.5-5" stroke="currentColor" stroke-width="1.75" stroke-linecap="round" stroke-linejoin="round"></path>
  </symbol>

  
  <symbol id="icon-invoiceguard" viewBox="0 0 24 24" fill="none">
    <path d="M6 3h12v14l-2-1.5-2 1.5-2-1.5-2 1.5-2-1.5-2 1.5V3Z" fill="currentColor" opacity="0.15" stroke="currentColor" stroke-width="1.5" stroke-linejoin="round"></path>
    <path d="M9 8h6M9 11h4" stroke="currentColor" stroke-width="1.5" stroke-linecap="round"></path>
    <circle cx="17" cy="17" r="4" fill="currentColor" opacity="0.9"></circle>
    <path d="M17 15.2V17l1.1 1.1" stroke="white" stroke-width="1.25" stroke-linecap="round" stroke-linejoin="round"></path>
  </symbol>

  
  <symbol id="icon-jobguard" viewBox="0 0 24 24" fill="none">
    <rect x="3" y="8" width="18" height="12" rx="2" fill="currentColor" opacity="0.15" stroke="currentColor" stroke-width="1.5"></rect>
    <path d="M9 8V6a3 3 0 0 1 6 0v2" stroke="currentColor" stroke-width="1.5" stroke-linecap="round"></path>
    <circle cx="16.5" cy="16.5" r="2.5" stroke="currentColor" stroke-width="1.5"></circle>
    <path d="M18.3 18.3l1.7 1.7" stroke="currentColor" stroke-width="1.5" stroke-linecap="round"></path>
  </symbol>

  
  <symbol id="icon-expand" viewBox="0 0 24 24" fill="none">
    <path d="M15 3h6v6M9 21H3v-6M21 3l-7 7M3 21l7-7" stroke="currentColor" stroke-width="1.75" stroke-linecap="round" stroke-linejoin="round"></path>
  </symbol>

  
  <symbol id="icon-moon" viewBox="0 0 24 24" fill="none">
    <path d="M21 12.79A9 9 0 1 1 11.21 3a7 7 0 0 0 9.79 9.79Z" stroke="currentColor" stroke-width="1.75" stroke-linecap="round" stroke-linejoin="round"></path>
  </symbol>

  
  <symbol id="icon-sun" viewBox="0 0 24 24" fill="none">
    <circle cx="12" cy="12" r="4" stroke="currentColor" stroke-width="1.75"></circle>
    <path d="M12 2v2M12 20v2M4.22 4.22l1.42 1.42M18.36 18.36l1.42 1.42M2 12h2M20 12h2M4.22 19.78l1.42-1.42M18.36 5.64l1.42-1.42" stroke="currentColor" stroke-width="1.75" stroke-linecap="round"></path>
  </symbol>

  
  <symbol id="icon-copy" viewBox="0 0 24 24" fill="none">
    <rect x="9" y="9" width="12" height="12" rx="2" stroke="currentColor" stroke-width="1.75"></rect>
    <path d="M5 15H4a2 2 0 0 1-2-2V4a2 2 0 0 1 2-2h9a2 2 0 0 1 2 2v1" stroke="currentColor" stroke-width="1.75" stroke-linecap="round"></path>
  </symbol>

  
  <symbol id="icon-arrow-left" viewBox="0 0 24 24" fill="none">
    <path d="M19 12H5M12 5l-7 7 7 7" stroke="currentColor" stroke-width="1.75" stroke-linecap="round" stroke-linejoin="round"></path>
  </symbol>

  
  <symbol id="icon-download" viewBox="0 0 24 24" fill="none">
    <path d="M21 15v4a2 2 0 0 1-2 2H5a2 2 0 0 1-2-2v-4M7 10l5 5 5-5M12 15V3" stroke="currentColor" stroke-width="1.75" stroke-linecap="round" stroke-linejoin="round"></path>
  </symbol>

  
  <symbol id="icon-check" viewBox="0 0 24 24" fill="none">
    <path d="M20 6L9 17l-5-5" stroke="currentColor" stroke-width="2" stroke-linecap="round" stroke-linejoin="round"></path>
  </symbol>

  
  <symbol id="icon-check-circle" viewBox="0 0 24 24" fill="none">
    <circle cx="12" cy="12" r="9" stroke="currentColor" stroke-width="1.75"></circle>
    <path d="M8.5 12l2.5 2.5 4.5-4.5" stroke="currentColor" stroke-width="1.75" stroke-linecap="round" stroke-linejoin="round"></path>
  </symbol>

  
  <symbol id="icon-lock" viewBox="0 0 24 24" fill="none">
    <rect x="5" y="11" width="14" height="10" rx="2" stroke="currentColor" stroke-width="1.75"></rect>
    <path d="M8 11V7a4 4 0 0 1 8 0v4" stroke="currentColor" stroke-width="1.75" stroke-linecap="round"></path>
    <circle cx="12" cy="16" r="1.5" fill="currentColor"></circle>
  </symbol>

  
  <symbol id="icon-star" viewBox="0 0 24 24" fill="none">
    <path d="M12 2l3.09 6.26L22 9.27l-5 4.87 1.18 6.88L12 17.77l-6.18 3.25L7 14.14 2 9.27l6.91-1.01L12 2Z" stroke="currentColor" stroke-width="1.75" stroke-linejoin="round"></path>
  </symbol>

  
  <symbol id="icon-star-fill" viewBox="0 0 24 24">
    <path d="M12 2l3.09 6.26L22 9.27l-5 4.87 1.18 6.88L12 17.77l-6.18 3.25L7 14.14 2 9.27l6.91-1.01L12 2Z" fill="currentColor"></path>
  </symbol>

  
  <symbol id="icon-upload" viewBox="0 0 24 24" fill="none">
    <path d="M21 15v4a2 2 0 0 1-2 2H5a2 2 0 0 1-2-2v-4M17 8l-5-5-5 5M12 3v12" stroke="currentColor" stroke-width="1.75" stroke-linecap="round" stroke-linejoin="round"></path>
  </symbol>

  
  <symbol id="icon-alert" viewBox="0 0 24 24" fill="none">
    <path d="M10.29 3.86L1.82 18a2 2 0 0 0 1.71 3h16.94a2 2 0 0 0 1.71-3L13.71 3.86a2 2 0 0 0-3.42 0Z" stroke="currentColor" stroke-width="1.75" stroke-linejoin="round"></path>
    <path d="M12 9v4M12 17h.01" stroke="currentColor" stroke-width="1.75" stroke-linecap="round"></path>
  </symbol>

  
  <symbol id="icon-info" viewBox="0 0 24 24" fill="none">
    <circle cx="12" cy="12" r="9" stroke="currentColor" stroke-width="1.75"></circle>
    <path d="M12 11v5M12 8h.01" stroke="currentColor" stroke-width="2" stroke-linecap="round"></path>
  </symbol>

  
  <symbol id="icon-shield" viewBox="0 0 24 24" fill="none">
    <path d="M12 2L4 5.5V11c0 4.418 3.358 8.55 8 9.95C16.642 19.55 20 15.418 20 11V5.5L12 2Z" stroke="currentColor" stroke-width="1.75" stroke-linejoin="round"></path>
  </symbol>

  
  <symbol id="icon-history" viewBox="0 0 24 24" fill="none">
    <circle cx="12" cy="12" r="9" stroke="currentColor" stroke-width="1.75"></circle>
    <path d="M12 7v5l3 3" stroke="currentColor" stroke-width="1.75" stroke-linecap="round" stroke-linejoin="round"></path>
  </symbol>

  
  <symbol id="icon-user" viewBox="0 0 24 24" fill="none">
    <circle cx="12" cy="8" r="4" stroke="currentColor" stroke-width="1.75"></circle>
    <path d="M4 20c0-4 3.582-7 8-7s8 3 8 7" stroke="currentColor" stroke-width="1.75" stroke-linecap="round"></path>
  </symbol>

  
  <symbol id="icon-briefcase" viewBox="0 0 24 24" fill="none">
    <rect x="2" y="7" width="20" height="14" rx="2" stroke="currentColor" stroke-width="1.75"></rect>
    <path d="M16 7V5a2 2 0 0 0-2-2h-4a2 2 0 0 0-2 2v2M12 12v2M8 12h8" stroke="currentColor" stroke-width="1.75" stroke-linecap="round"></path>
  </symbol>

  
  <symbol id="icon-sparkle" viewBox="0 0 24 24" fill="none">
    <path d="M12 2v4M12 18v4M4.93 4.93l2.83 2.83M16.24 16.24l2.83 2.83M2 12h4M18 12h4M4.93 19.07l2.83-2.83M16.24 7.76l2.83-2.83" stroke="currentColor" stroke-width="1.75" stroke-linecap="round"></path>
  </symbol>

</svg>